<svg xmlns="http://www.w3.org/2000/svg" width="300" height="300"><path d="M140,134L149,124L108,116Z" fill="#69c3bf" stroke="#69c3bf" stroke-width="1.51"/><path d="M80,66L75,98L108,116Z" fill="#abddb8" stroke="#abddb8" stroke-width="1.51"/><path d="M108,116L95,163L140,134Z" fill="#6dc4be" stroke="#6dc4be" stroke-width="1.51"/><path d="M149,124L124,57L108,116Z" fill="#85cdbc" stroke="#85cdbc" stroke-width="1.51"/><path d="M70,148L95,163L108,116Z" fill="#83ccbd" stroke="#83ccbd" stroke-width="1.51"/><path d="M149,124L165,67L124,57Z" fill="#8acdbd" stroke="#8acdbd" stroke-width="1.51"/><path d="M95,163L108,178L140,134Z" fill="#61bdbf" stroke="#61bdbf" stroke-width="1.51"/><path d="M208,153L196,112L149,124Z" fill="#4cabc0" stroke="#4cabc0" stroke-width="1.51"/><path d="M149,124L196,112L165,67Z" fill="#6ebcbe" stroke="#6ebcbe" stroke-width="1.51"/><path d="M208,153L149,124L140,134Z" fill="#4ab2c2" stroke="#4ab2c2" stroke-width="1.51"/><path d="M75,98L70,148L108,116Z" fill="#97d5ba" stroke="#97d5ba" stroke-width="1.51"/><path d="M95,163L64,186L108,178Z" fill="#7bbdbd" stroke="#7bbdbd" stroke-width="1.51"/><path d="M124,57L80,66L108,116Z" fill="#a9dcb8" stroke="#a9dcb8" stroke-width="1.51"/><path d="M108,178L141,190L140,134Z" fill="#51b3c1" stroke="#51b3c1" stroke-width="1.51"/><path d="M165,67L143,33L124,57Z" fill="#a0d6bb" stroke="#a0d6bb" stroke-width="1.51"/><path d="M124,57L98,10L80,66Z" fill="#c1e5b6" stroke="#c1e5b6" stroke-width="1.51"/><path d="M183,31L143,33L165,67Z" fill="#9fcebc" stroke="#9fcebc" stroke-width="1.51"/><path d="M186,188L208,153L140,134Z" fill="#33a4c2" stroke="#33a4c2" stroke-width="1.51"/><path d="M196,112L206,66L165,67Z" fill="#80b8bb" stroke="#80b8bb" stroke-width="1.51"/><path d="M235,111L206,66L196,112Z" fill="#6ea2b5" stroke="#6ea2b5" stroke-width="1.51"/><path d="M141,190L186,188L140,134Z" fill="#37a8c3" stroke="#37a8c3" stroke-width="1.51"/><path d="M70,148L64,186L95,163Z" fill="#8bc6bc" stroke="#8bc6bc" stroke-width="1.51"/><path d="M108,178L104,231L141,190Z" fill="#57a4bb" stroke="#57a4bb" stroke-width="1.51"/><path d="M33,134L64,186L70,148Z" fill="#9ad0bc" stroke="#9ad0bc" stroke-width="1.51"/><path d="M75,98L33,134L70,148Z" fill="#a6d9b9" stroke="#a6d9b9" stroke-width="1.51"/><path d="M20,98L33,134L75,98Z" fill="#b9e2b6" stroke="#b9e2b6" stroke-width="1.51"/><path d="M206,66L183,31L165,67Z" fill="#94c1bb" stroke="#94c1bb" stroke-width="1.51"/><path d="M208,153L235,111L196,112Z" fill="#5098b8" stroke="#5098b8" stroke-width="1.51"/><path d="M186,188L222,159L208,153Z" fill="#2e8ebc" stroke="#2e8ebc" stroke-width="1.51"/><path d="M222,159L235,111L208,153Z" fill="#428db6" stroke="#428db6" stroke-width="1.51"/><path d="M97,-3L98,10L143,33Z" fill="#bfe5c3" stroke="#bfe5c3" stroke-width="1.51"/><path d="M143,33L98,10L124,57Z" fill="#b6e0ba" stroke="#b6e0ba" stroke-width="1.51"/><path d="M35,57L20,98L75,98Z" fill="#cfecb4" stroke="#cfecb4" stroke-width="1.51"/><path d="M35,57L75,98L80,66Z" fill="#ceecb4" stroke="#ceecb4" stroke-width="1.51"/><path d="M69,10L35,57L80,66Z" fill="#def1b3" stroke="#def1b3" stroke-width="1.51"/><path d="M64,186L104,231L108,178Z" fill="#74aeb9" stroke="#74aeb9" stroke-width="1.51"/><path d="M141,190L186,227L186,188Z" fill="#2b8fbd" stroke="#2b8fbd" stroke-width="1.51"/><path d="M186,188L220,198L222,159Z" fill="#2585ba" stroke="#2585ba" stroke-width="1.51"/><path d="M104,231L142,235L141,190Z" fill="#4d93b6" stroke="#4d93b6" stroke-width="1.51"/><path d="M98,10L69,10L80,66Z" fill="#d6efb8" stroke="#d6efb8" stroke-width="1.51"/><path d="M278,154L268,113L235,111Z" fill="#537bab" stroke="#537bab" stroke-width="1.51"/><path d="M186,227L220,198L186,188Z" fill="#227eb7" stroke="#227eb7" stroke-width="1.51"/><path d="M98,10L97,-3L69,10Z" fill="#d6efc5" stroke="#d6efc5" stroke-width="1.51"/><path d="M161,-29L97,-3L143,33Z" fill="#b6dfcd" stroke="#b6dfcd" stroke-width="1.51"/><path d="M142,235L186,227L141,190Z" fill="#348bb8" stroke="#348bb8" stroke-width="1.51"/><path d="M206,66L232,11L183,31Z" fill="#9bb4b6" stroke="#9bb4b6" stroke-width="1.51"/><path d="M235,111L241,56L206,66Z" fill="#819eb0" stroke="#819eb0" stroke-width="1.51"/><path d="M69,10L37,21L35,57Z" fill="#eaf7b6" stroke="#eaf7b6" stroke-width="1.51"/><path d="M35,57L-9,95L20,98Z" fill="#d8f0bf" stroke="#d8f0bf" stroke-width="1.51"/><path d="M61,-25L37,21L69,10Z" fill="#edf8c5" stroke="#edf8c5" stroke-width="1.51"/><path d="M104,231L100,263L142,235Z" fill="#5a88ae" stroke="#5a88ae" stroke-width="1.51"/><path d="M64,186L82,243L104,231Z" fill="#7ca1b2" stroke="#7ca1b2" stroke-width="1.51"/><path d="M17,233L82,243L64,186Z" fill="#90a7b1" stroke="#90a7b1" stroke-width="1.51"/><path d="M235,111L268,113L241,56Z" fill="#728cac" stroke="#728cac" stroke-width="1.51"/><path d="M278,154L235,111L222,159Z" fill="#4580b0" stroke="#4580b0" stroke-width="1.51"/><path d="M20,98L-9,95L33,134Z" fill="#c2e6c2" stroke="#c2e6c2" stroke-width="1.51"/><path d="M33,134L10,197L64,186Z" fill="#a1cbbc" stroke="#a1cbbc" stroke-width="1.51"/><path d="M-25,49L-9,95L35,57Z" fill="#e7f6c6" stroke="#e7f6c6" stroke-width="1.51"/><path d="M183,31L188,-14L143,33Z" fill="#a4cdc6" stroke="#a4cdc6" stroke-width="1.51"/><path d="M232,11L188,-14L183,31Z" fill="#a0bbc4" stroke="#a0bbc4" stroke-width="1.51"/><path d="M-27,152L10,197L33,134Z" fill="#aad4cc" stroke="#aad4cc" stroke-width="1.51"/><path d="M241,56L232,11L206,66Z" fill="#94a5af" stroke="#94a5af" stroke-width="1.51"/><path d="M261,7L232,11L241,56Z" fill="#9a9cb1" stroke="#9a9cb1" stroke-width="1.51"/><path d="M188,-14L161,-29L143,33Z" fill="#aad3cf" stroke="#aad3cf" stroke-width="1.51"/><path d="M97,-3L61,-25L69,10Z" fill="#e3f4c6" stroke="#e3f4c6" stroke-width="1.51"/><path d="M82,243L100,263L104,231Z" fill="#708dac" stroke="#708dac" stroke-width="1.51"/><path d="M142,235L175,266L186,227Z" fill="#3476b1" stroke="#3476b1" stroke-width="1.51"/><path d="M57,264L100,263L82,243Z" fill="#7f8ca8" stroke="#7f8ca8" stroke-width="1.51"/><path d="M271,179L278,154L222,159Z" fill="#3870ad" stroke="#3870ad" stroke-width="1.51"/><path d="M271,179L222,159L220,198Z" fill="#2c74b1" stroke="#2c74b1" stroke-width="1.51"/><path d="M304,116L269,50L268,113Z" fill="#6a7d99" stroke="#6a7d99" stroke-width="1.51"/><path d="M268,113L269,50L241,56Z" fill="#848ca8" stroke="#848ca8" stroke-width="1.51"/><path d="M283,220L271,179L220,198Z" fill="#2a5da8" stroke="#2a5da8" stroke-width="1.51"/><path d="M37,21L-25,49L35,57Z" fill="#f0f9bc" stroke="#f0f9bc" stroke-width="1.51"/><path d="M104,-68L61,-25L97,-3Z" fill="#d8f0c7" stroke="#d8f0c7" stroke-width="1.51"/><path d="M186,227L228,249L220,198Z" fill="#2367ad" stroke="#2367ad" stroke-width="1.51"/><path d="M147,288L175,266L142,235Z" fill="#3c71ac" stroke="#3c71ac" stroke-width="1.51"/><path d="M261,7L227,-10L232,11Z" fill="#9ea1bd" stroke="#9ea1bd" stroke-width="1.51"/><path d="M232,11L227,-10L188,-14Z" fill="#a0b1c5" stroke="#a0b1c5" stroke-width="1.51"/><path d="M176,-71L143,-67L161,-29Z" fill="#abd5ce" stroke="#abd5ce" stroke-width="1.51"/><path d="M-9,95L-27,152L33,134Z" fill="#bae1cc" stroke="#bae1cc" stroke-width="1.51"/><path d="M10,197L17,233L64,186Z" fill="#9cb6b9" stroke="#9cb6b9" stroke-width="1.51"/><path d="M-2,249L17,233L10,197Z" fill="#9da9bd" stroke="#9da9bd" stroke-width="1.51"/><path d="M17,233L57,264L82,243Z" fill="#9097aa" stroke="#9097aa" stroke-width="1.51"/><path d="M100,263L147,288L142,235Z" fill="#5179aa" stroke="#5179aa" stroke-width="1.51"/><path d="M175,266L228,249L186,227Z" fill="#2965ab" stroke="#2965ab" stroke-width="1.51"/><path d="M-9,95L-51,143L-27,152Z" fill="#b8e0cc" stroke="#b8e0cc" stroke-width="1.51"/><path d="M-19,14L-25,49L37,21Z" fill="#f9fdca" stroke="#f9fdca" stroke-width="1.51"/><path d="M269,50L261,7L241,56Z" fill="#9793a8" stroke="#9793a8" stroke-width="1.51"/><path d="M61,-25L39,-31L37,21Z" fill="#f2fac5" stroke="#f2fac5" stroke-width="1.51"/><path d="M67,-68L39,-31L61,-25Z" fill="#edf8c6" stroke="#edf8c6" stroke-width="1.51"/><path d="M175,266L237,287L228,249Z" fill="#264f9d" stroke="#264f9d" stroke-width="1.51"/><path d="M94,301L147,288L100,263Z" fill="#537597" stroke="#537597" stroke-width="1.51"/><path d="M315,161L304,116L278,154Z" fill="#34688d" stroke="#34688d" stroke-width="1.51"/><path d="M278,154L304,116L268,113Z" fill="#497299" stroke="#497299" stroke-width="1.51"/><path d="M269,50L315,20L261,7Z" fill="#8f899c" stroke="#8f899c" stroke-width="1.51"/><path d="M-27,152L-32,193L10,197Z" fill="#a5cace" stroke="#a5cace" stroke-width="1.51"/><path d="M-59,193L-32,193L-27,152Z" fill="#a6cbce" stroke="#a6cbce" stroke-width="1.51"/><path d="M39,-31L-19,14L37,21Z" fill="#fafdce" stroke="#fafdce" stroke-width="1.51"/><path d="M-55,76L-9,95L-25,49Z" fill="#e4f5c6" stroke="#e4f5c6" stroke-width="1.51"/><path d="M-63,98L-51,143L-9,95Z" fill="#c2e6ca" stroke="#c2e6ca" stroke-width="1.51"/><path d="M161,-29L104,-68L97,-3Z" fill="#bde4cb" stroke="#bde4cb" stroke-width="1.51"/><path d="M176,-71L161,-29L188,-14Z" fill="#a7cdce" stroke="#a7cdce" stroke-width="1.51"/><path d="M220,-45L188,-14L227,-10Z" fill="#a1b4c6" stroke="#a1b4c6" stroke-width="1.51"/><path d="M261,-35L220,-45L227,-10Z" fill="#9ea3bf" stroke="#9ea3bf" stroke-width="1.51"/><path d="M57,264L94,301L100,263Z" fill="#75829c" stroke="#75829c" stroke-width="1.51"/><path d="M17,233L32,272L57,264Z" fill="#9894a8" stroke="#9894a8" stroke-width="1.51"/><path d="M-2,249L32,272L17,233Z" fill="#9b99b3" stroke="#9b99b3" stroke-width="1.51"/><path d="M143,-67L104,-68L161,-29Z" fill="#b5decd" stroke="#b5decd" stroke-width="1.51"/><path d="M271,179L315,161L278,154Z" fill="#2d6396" stroke="#2d6396" stroke-width="1.51"/><path d="M228,249L283,220L220,198Z" fill="#2556a4" stroke="#2556a4" stroke-width="1.51"/><path d="M-32,193L-2,249L10,197Z" fill="#a0b3c6" stroke="#a0b3c6" stroke-width="1.51"/><path d="M-71,7L-55,76L-25,49Z" fill="#f3fac5" stroke="#f3fac5" stroke-width="1.51"/><path d="M56,307L94,301L57,264Z" fill="#78808e" stroke="#78808e" stroke-width="1.51"/><path d="M328,200L315,161L271,179Z" fill="#1f588b" stroke="#1f588b" stroke-width="1.51"/><path d="M220,-45L176,-71L188,-14Z" fill="#a2c1cb" stroke="#a2c1cb" stroke-width="1.51"/><path d="M143,-67L176,-71L104,-68Z" fill="#b2ddce" stroke="#b2ddce" stroke-width="1.51"/><path d="M-55,76L-63,98L-9,95Z" fill="#d6efc8" stroke="#d6efc8" stroke-width="1.51"/><path d="M176,-71L67,-68L104,-68Z" fill="#c0e5ca" stroke="#c0e5ca" stroke-width="1.51"/><path d="M104,-68L67,-68L61,-25Z" fill="#e1f3c6" stroke="#e1f3c6" stroke-width="1.51"/><path d="M39,-31L-19,-28L-19,14Z" fill="#ffffd9" stroke="#ffffd9" stroke-width="1.51"/><path d="M67,-68L26,-49L39,-31Z" fill="#f3fac5" stroke="#f3fac5" stroke-width="1.51"/><path d="M261,7L261,-35L227,-10Z" fill="#9e9bbc" stroke="#9e9bbc" stroke-width="1.51"/><path d="M304,116L313,50L269,50Z" fill="#747d8b" stroke="#747d8b" stroke-width="1.51"/><path d="M364,78L313,50L304,116Z" fill="#6b7987" stroke="#6b7987" stroke-width="1.51"/><path d="M301,-4L261,-35L261,7Z" fill="#978fae" stroke="#978fae" stroke-width="1.51"/><path d="M220,-45L292,-58L176,-71Z" fill="#9fa7c1" stroke="#9fa7c1" stroke-width="1.51"/><path d="M285,280L303,239L283,220Z" fill="#1b3481" stroke="#1b3481" stroke-width="1.51"/><path d="M207,315L237,287L175,266Z" fill="#1e4c8d" stroke="#1e4c8d" stroke-width="1.51"/><path d="M207,315L175,266L147,288Z" fill="#265d94" stroke="#265d94" stroke-width="1.51"/><path d="M32,272L56,307L57,264Z" fill="#888797" stroke="#888797" stroke-width="1.51"/><path d="M-2,249L-11,263L32,272Z" fill="#9c93b6" stroke="#9c93b6" stroke-width="1.51"/><path d="M-67,223L-11,263L-2,249Z" fill="#9e9ebd" stroke="#9e9ebd" stroke-width="1.51"/><path d="M-67,223L-2,249L-32,193Z" fill="#9facc3" stroke="#9facc3" stroke-width="1.51"/><path d="M-51,143L-59,193L-27,152Z" fill="#aad3cf" stroke="#aad3cf" stroke-width="1.51"/><path d="M-63,98L-59,193L-51,143Z" fill="#b0dcce" stroke="#b0dcce" stroke-width="1.51"/><path d="M22,315L56,307L32,272Z" fill="#848288" stroke="#848288" stroke-width="1.51"/><path d="M147,334L207,315L147,288Z" fill="#265d8c" stroke="#265d8c" stroke-width="1.51"/><path d="M26,-49L-19,-28L39,-31Z" fill="#fcfed1" stroke="#fcfed1" stroke-width="1.51"/><path d="M-19,14L-71,7L-25,49Z" fill="#fafdcd" stroke="#fafdcd" stroke-width="1.51"/><path d="M-55,76L-71,7L-63,98Z" fill="#ebf7c6" stroke="#ebf7c6" stroke-width="1.51"/><path d="M313,50L315,20L269,50Z" fill="#828287" stroke="#828287" stroke-width="1.51"/><path d="M373,10L315,20L313,50Z" fill="#84828b" stroke="#84828b" stroke-width="1.51"/><path d="M315,20L301,-4L261,7Z" fill="#8c879b" stroke="#8c879b" stroke-width="1.51"/><path d="M285,280L283,220L228,249Z" fill="#253b95" stroke="#253b95" stroke-width="1.51"/><path d="M283,220L328,200L271,179Z" fill="#1c4f8b" stroke="#1c4f8b" stroke-width="1.51"/><path d="M237,287L285,280L228,249Z" fill="#22388f" stroke="#22388f" stroke-width="1.51"/><path d="M147,334L147,288L94,301Z" fill="#406b8b" stroke="#406b8b" stroke-width="1.51"/><path d="M303,239L328,200L283,220Z" fill="#174080" stroke="#174080" stroke-width="1.51"/><path d="M315,161L368,152L304,116Z" fill="#34678c" stroke="#34678c" stroke-width="1.51"/><path d="M151,347L147,334L123,352Z" fill="#37688c" stroke="#37688c" stroke-width="1.51"/><path d="M26,-49L-23,-46L-19,-28Z" fill="#ffffd9" stroke="#ffffd9" stroke-width="1.51"/><path d="M-19,-28L-71,7L-19,14Z" fill="#ffffd9" stroke="#ffffd9" stroke-width="1.51"/><path d="M-48,-71L-23,-46L26,-49Z" fill="#ffffd9" stroke="#ffffd9" stroke-width="1.51"/><path d="M-59,193L-67,223L-32,193Z" fill="#a2bbc9" stroke="#a2bbc9" stroke-width="1.51"/><path d="M-63,98L-67,223L-59,193Z" fill="#a8cfce" stroke="#a8cfce" stroke-width="1.51"/><path d="M362,224L350,177L328,200Z" fill="#1a4c87" stroke="#1a4c87" stroke-width="1.51"/><path d="M285,324L285,280L237,287Z" fill="#152773" stroke="#152773" stroke-width="1.51"/><path d="M123,352L147,334L94,301Z" fill="#466d8a" stroke="#466d8a" stroke-width="1.51"/><path d="M-11,263L22,315L32,272Z" fill="#8f8a9f" stroke="#8f8a9f" stroke-width="1.51"/><path d="M-13,319L22,315L-11,263Z" fill="#8a8599" stroke="#8a8599" stroke-width="1.51"/><path d="M-63,98L-77,-22L-67,223Z" fill="#ceebc9" stroke="#ceebc9" stroke-width="1.51"/><path d="M-77,-22L-71,7L-19,-28Z" fill="#ffffd9" stroke="#ffffd9" stroke-width="1.51"/><path d="M207,315L234,319L237,287Z" fill="#163c7e" stroke="#163c7e" stroke-width="1.51"/><path d="M233,348L234,319L207,315Z" fill="#163c7f" stroke="#163c7f" stroke-width="1.51"/><path d="M362,224L328,200L303,239Z" fill="#173f80" stroke="#173f80" stroke-width="1.51"/><path d="M328,200L350,177L315,161Z" fill="#1f588b" stroke="#1f588b" stroke-width="1.51"/><path d="M147,334L151,347L207,315Z" fill="#255d8c" stroke="#255d8c" stroke-width="1.51"/><path d="M123,352L94,301L66,372Z" fill="#5f7588" stroke="#5f7588" stroke-width="1.51"/><path d="M285,280L302,277L303,239Z" fill="#172876" stroke="#172876" stroke-width="1.51"/><path d="M285,324L302,277L285,280Z" fill="#0e2264" stroke="#0e2264" stroke-width="1.51"/><path d="M66,372L94,301L56,307Z" fill="#727b87" stroke="#727b87" stroke-width="1.51"/><path d="M374,115L364,78L304,116Z" fill="#567288" stroke="#567288" stroke-width="1.51"/><path d="M321,-64L292,-58L301,-4Z" fill="#898498" stroke="#898498" stroke-width="1.51"/><path d="M321,-64L301,-4L354,-56Z" fill="#898498" stroke="#898498" stroke-width="1.51"/><path d="M301,-4L292,-58L261,-35Z" fill="#918aa5" stroke="#918aa5" stroke-width="1.51"/><path d="M261,-35L292,-58L220,-45Z" fill="#9d96ba" stroke="#9d96ba" stroke-width="1.51"/><path d="M362,224L368,152L350,177Z" fill="#1d568a" stroke="#1d568a" stroke-width="1.51"/><path d="M350,177L368,152L315,161Z" fill="#285f8c" stroke="#285f8c" stroke-width="1.51"/><path d="M368,152L374,115L304,116Z" fill="#416b8b" stroke="#416b8b" stroke-width="1.51"/><path d="M-23,-46L-77,-22L-19,-28Z" fill="#ffffd9" stroke="#ffffd9" stroke-width="1.51"/><path d="M-71,7L-77,-22L-63,98Z" fill="#f9fdcb" stroke="#f9fdcb" stroke-width="1.51"/><path d="M22,315L36,361L56,307Z" fill="#838186" stroke="#838186" stroke-width="1.51"/><path d="M-61,290L-13,319L-11,263Z" fill="#8e88a0" stroke="#8e88a0" stroke-width="1.51"/><path d="M234,319L285,324L237,287Z" fill="#172e78" stroke="#172e78" stroke-width="1.51"/><path d="M201,364L233,348L207,315Z" fill="#184382" stroke="#184382" stroke-width="1.51"/><path d="M201,364L207,315L151,347Z" fill="#1b558a" stroke="#1b558a" stroke-width="1.51"/><path d="M365,281L362,224L303,239Z" fill="#173079" stroke="#173079" stroke-width="1.51"/><path d="M368,152L365,281L374,115Z" fill="#1e578b" stroke="#1e578b" stroke-width="1.51"/><path d="M365,281L303,239L302,277Z" fill="#162773" stroke="#162773" stroke-width="1.51"/><path d="M-23,-46L-48,-71L-77,-22Z" fill="#ffffd9" stroke="#ffffd9" stroke-width="1.51"/><path d="M67,-68L-48,-71L26,-49Z" fill="#fcfed1" stroke="#fcfed1" stroke-width="1.51"/><path d="M176,-71L-48,-71L67,-68Z" fill="#e8f6c6" stroke="#e8f6c6" stroke-width="1.51"/><path d="M-67,223L-61,290L-11,263Z" fill="#9d95b9" stroke="#9d95b9" stroke-width="1.51"/><path d="M123,352L201,364L151,347Z" fill="#2a628c" stroke="#2a628c" stroke-width="1.51"/><path d="M304,327L285,324L286,345Z" fill="#0c1f5e" stroke="#0c1f5e" stroke-width="1.51"/><path d="M233,348L285,324L234,319Z" fill="#172e78" stroke="#172e78" stroke-width="1.51"/><path d="M292,-58L321,-64L176,-71Z" fill="#9d93b8" stroke="#9d93b8" stroke-width="1.51"/><path d="M370,-7L301,-4L315,20Z" fill="#898497" stroke="#898497" stroke-width="1.51"/><path d="M-2,355L22,315L-13,319Z" fill="#898497" stroke="#898497" stroke-width="1.51"/><path d="M-2,355L36,361L22,315Z" fill="#86838f" stroke="#86838f" stroke-width="1.51"/><path d="M123,352L66,372L201,364Z" fill="#3f6a8b" stroke="#3f6a8b" stroke-width="1.51"/><path d="M36,361L66,372L56,307Z" fill="#7b7f86" stroke="#7b7f86" stroke-width="1.51"/><path d="M374,115L373,10L364,78Z" fill="#747c86" stroke="#747c86" stroke-width="1.51"/><path d="M364,78L373,10L313,50Z" fill="#7f8086" stroke="#7f8086" stroke-width="1.51"/><path d="M373,10L370,-7L315,20Z" fill="#888494" stroke="#888494" stroke-width="1.51"/><path d="M36,361L-61,369L66,372Z" fill="#878391" stroke="#878391" stroke-width="1.51"/><path d="M-46,333L-2,355L-13,319Z" fill="#898498" stroke="#898498" stroke-width="1.51"/><path d="M286,345L285,324L233,348Z" fill="#152771" stroke="#152771" stroke-width="1.51"/><path d="M285,324L304,327L302,277Z" fill="#091e5a" stroke="#091e5a" stroke-width="1.51"/><path d="M333,374L286,345L233,348Z" fill="#0f2264" stroke="#0f2264" stroke-width="1.51"/><path d="M-61,290L-46,333L-13,319Z" fill="#898498" stroke="#898498" stroke-width="1.51"/><path d="M370,-7L354,-56L301,-4Z" fill="#898498" stroke="#898498" stroke-width="1.51"/><path d="M362,224L365,281L368,152Z" fill="#174081" stroke="#174081" stroke-width="1.51"/><path d="M359,312L365,281L302,277Z" fill="#0c205f" stroke="#0c205f" stroke-width="1.51"/><path d="M359,312L302,277L304,327Z" fill="#081d58" stroke="#081d58" stroke-width="1.51"/><path d="M355,367L359,312L304,327Z" fill="#081d58" stroke="#081d58" stroke-width="1.51"/><path d="M-61,290L-61,369L-46,333Z" fill="#898498" stroke="#898498" stroke-width="1.51"/><path d="M-46,333L-61,369L-2,355Z" fill="#898498" stroke="#898498" stroke-width="1.51"/><path d="M-2,355L-61,369L36,361Z" fill="#898498" stroke="#898498" stroke-width="1.51"/><path d="M-67,223L-61,369L-61,290Z" fill="#8c879d" stroke="#8c879d" stroke-width="1.51"/><path d="M286,345L333,374L304,327Z" fill="#081d58" stroke="#081d58" stroke-width="1.51"/><path d="M201,364L333,374L233,348Z" fill="#172c77" stroke="#172c77" stroke-width="1.51"/><path d="M66,372L333,374L201,364Z" fill="#1a4c87" stroke="#1a4c87" stroke-width="1.51"/><path d="M359,312L355,367L365,281Z" fill="#081d58" stroke="#081d58" stroke-width="1.51"/><path d="M333,374L355,367L304,327Z" fill="#081d58" stroke="#081d58" stroke-width="1.51"/></svg>