<svg xmlns="http://www.w3.org/2000/svg" width="300" height="322"><path d="M161,139L179,134L172,117Z" fill="#58b4c0" stroke="#58b4c0" stroke-width="1.51"/><path d="M172,117L160,95L161,139Z" fill="#66bcbf" stroke="#66bcbf" stroke-width="1.51"/><path d="M107,107L120,152L161,139Z" fill="#6cc4bf" stroke="#6cc4bf" stroke-width="1.51"/><path d="M161,139L191,193L179,134Z" fill="#3eaac2" stroke="#3eaac2" stroke-width="1.51"/><path d="M160,95L107,107L161,139Z" fill="#72c6be" stroke="#72c6be" stroke-width="1.51"/><path d="M146,198L191,193L161,139Z" fill="#36a6c2" stroke="#36a6c2" stroke-width="1.51"/><path d="M179,134L224,84L172,117Z" fill="#66aebc" stroke="#66aebc" stroke-width="1.51"/><path d="M172,117L224,84L160,95Z" fill="#75b7bc" stroke="#75b7bc" stroke-width="1.51"/><path d="M225,176L237,141L179,134Z" fill="#4294b9" stroke="#4294b9" stroke-width="1.51"/><path d="M237,141L224,84L179,134Z" fill="#5c9db6" stroke="#5c9db6" stroke-width="1.51"/><path d="M120,152L146,198L161,139Z" fill="#49b7c3" stroke="#49b7c3" stroke-width="1.51"/><path d="M120,152L117,181L146,198Z" fill="#54b5c1" stroke="#54b5c1" stroke-width="1.51"/><path d="M65,164L117,181L120,152Z" fill="#72c4bf" stroke="#72c4bf" stroke-width="1.51"/><path d="M191,193L225,176L179,134Z" fill="#3299be" stroke="#3299be" stroke-width="1.51"/><path d="M224,84L199,59L160,95Z" fill="#87b7b9" stroke="#87b7b9" stroke-width="1.51"/><path d="M160,95L119,67L107,107Z" fill="#93d3bb" stroke="#93d3bb" stroke-width="1.51"/><path d="M191,193L190,203L225,176Z" fill="#278cbc" stroke="#278cbc" stroke-width="1.51"/><path d="M146,198L190,203L191,193Z" fill="#2798c1" stroke="#2798c1" stroke-width="1.51"/><path d="M138,51L119,67L160,95Z" fill="#9bd5bb" stroke="#9bd5bb" stroke-width="1.51"/><path d="M162,40L138,51L160,95Z" fill="#99d1bc" stroke="#99d1bc" stroke-width="1.51"/><path d="M199,59L162,40L160,95Z" fill="#93c5bc" stroke="#93c5bc" stroke-width="1.51"/><path d="M237,141L252,95L224,84Z" fill="#6b91ae" stroke="#6b91ae" stroke-width="1.51"/><path d="M224,84L242,67L199,59Z" fill="#8aa4b1" stroke="#8aa4b1" stroke-width="1.51"/><path d="M252,95L242,67L224,84Z" fill="#8297ac" stroke="#8297ac" stroke-width="1.51"/><path d="M199,59L173,8L162,40Z" fill="#a0c8bd" stroke="#a0c8bd" stroke-width="1.51"/><path d="M107,107L70,137L120,152Z" fill="#87cebc" stroke="#87cebc" stroke-width="1.51"/><path d="M119,67L79,89L107,107Z" fill="#a9dcb7" stroke="#a9dcb7" stroke-width="1.51"/><path d="M68,45L79,89L119,67Z" fill="#c2e6b5" stroke="#c2e6b5" stroke-width="1.51"/><path d="M79,89L70,137L107,107Z" fill="#a4dab8" stroke="#a4dab8" stroke-width="1.51"/><path d="M146,198L145,229L190,203Z" fill="#3099bf" stroke="#3099bf" stroke-width="1.51"/><path d="M101,228L145,229L146,198Z" fill="#4b9ebb" stroke="#4b9ebb" stroke-width="1.51"/><path d="M101,228L146,198L117,181Z" fill="#53abbe" stroke="#53abbe" stroke-width="1.51"/><path d="M237,141L271,154L252,95Z" fill="#5781ac" stroke="#5781ac" stroke-width="1.51"/><path d="M225,176L266,167L237,141Z" fill="#3c7fb2" stroke="#3c7fb2" stroke-width="1.51"/><path d="M257,211L266,167L225,176Z" fill="#3271af" stroke="#3271af" stroke-width="1.51"/><path d="M257,211L225,176L230,235Z" fill="#276caf" stroke="#276caf" stroke-width="1.51"/><path d="M266,167L271,154L237,141Z" fill="#4478ad" stroke="#4478ad" stroke-width="1.51"/><path d="M70,137L65,164L120,152Z" fill="#8bcebc" stroke="#8bcebc" stroke-width="1.51"/><path d="M242,67L251,45L199,59Z" fill="#90a1ae" stroke="#90a1ae" stroke-width="1.51"/><path d="M252,95L251,45L242,67Z" fill="#8a94aa" stroke="#8a94aa" stroke-width="1.51"/><path d="M311,40L251,45L252,95Z" fill="#89899f" stroke="#89899f" stroke-width="1.51"/><path d="M48,203L101,228L117,181Z" fill="#78b5bc" stroke="#78b5bc" stroke-width="1.51"/><path d="M193,-3L173,8L199,59Z" fill="#a0c4c3" stroke="#a0c4c3" stroke-width="1.51"/><path d="M144,-3L106,20L138,51Z" fill="#b4dfc1" stroke="#b4dfc1" stroke-width="1.51"/><path d="M138,51L106,20L119,67Z" fill="#b3dfb8" stroke="#b3dfb8" stroke-width="1.51"/><path d="M230,235L225,176L190,203Z" fill="#237cb6" stroke="#237cb6" stroke-width="1.51"/><path d="M266,167L291,188L271,154Z" fill="#356ba0" stroke="#356ba0" stroke-width="1.51"/><path d="M181,254L190,203L145,229Z" fill="#2c87b9" stroke="#2c87b9" stroke-width="1.51"/><path d="M181,254L230,235L190,203Z" fill="#2375b3" stroke="#2375b3" stroke-width="1.51"/><path d="M144,-3L138,51L162,40Z" fill="#a9d8c1" stroke="#a9d8c1" stroke-width="1.51"/><path d="M143,257L181,254L145,229Z" fill="#3684b4" stroke="#3684b4" stroke-width="1.51"/><path d="M251,45L231,18L199,59Z" fill="#98a6af" stroke="#98a6af" stroke-width="1.51"/><path d="M76,35L68,45L119,67Z" fill="#cbeab5" stroke="#cbeab5" stroke-width="1.51"/><path d="M17,118L27,140L70,137Z" fill="#b4dfb8" stroke="#b4dfb8" stroke-width="1.51"/><path d="M21,181L48,203L65,164Z" fill="#9dcabb" stroke="#9dcabb" stroke-width="1.51"/><path d="M101,228L143,257L145,229Z" fill="#4d91b5" stroke="#4d91b5" stroke-width="1.51"/><path d="M106,20L76,35L119,67Z" fill="#c4e7b5" stroke="#c4e7b5" stroke-width="1.51"/><path d="M173,8L144,-3L162,40Z" fill="#a8d3c7" stroke="#a8d3c7" stroke-width="1.51"/><path d="M106,20L80,-27L76,35Z" fill="#d6efc3" stroke="#d6efc3" stroke-width="1.51"/><path d="M193,-3L144,-3L173,8Z" fill="#a8d0ce" stroke="#a8d0ce" stroke-width="1.51"/><path d="M231,18L193,-3L199,59Z" fill="#9db5bc" stroke="#9db5bc" stroke-width="1.51"/><path d="M271,154L312,129L252,95Z" fill="#53769c" stroke="#53769c" stroke-width="1.51"/><path d="M257,211L291,188L266,167Z" fill="#2e64a3" stroke="#2e64a3" stroke-width="1.51"/><path d="M321,227L291,188L257,211Z" fill="#1f5391" stroke="#1f5391" stroke-width="1.51"/><path d="M181,254L224,255L230,235Z" fill="#2463ab" stroke="#2463ab" stroke-width="1.51"/><path d="M230,235L258,271L257,211Z" fill="#2553a3" stroke="#2553a3" stroke-width="1.51"/><path d="M184,291L224,255L181,254Z" fill="#2964ab" stroke="#2964ab" stroke-width="1.51"/><path d="M101,228L115,276L143,257Z" fill="#568bb0" stroke="#568bb0" stroke-width="1.51"/><path d="M65,164L48,203L117,181Z" fill="#89c4bc" stroke="#89c4bc" stroke-width="1.51"/><path d="M27,140L65,164L70,137Z" fill="#a4d7ba" stroke="#a4d7ba" stroke-width="1.51"/><path d="M17,118L70,137L79,89Z" fill="#b5e1b6" stroke="#b5e1b6" stroke-width="1.51"/><path d="M68,45L37,72L79,89Z" fill="#d4eeb3" stroke="#d4eeb3" stroke-width="1.51"/><path d="M41,32L37,72L68,45Z" fill="#e3f4b2" stroke="#e3f4b2" stroke-width="1.51"/><path d="M291,188L312,129L271,154Z" fill="#356993" stroke="#356993" stroke-width="1.51"/><path d="M312,129L310,103L252,95Z" fill="#5c768f" stroke="#5c768f" stroke-width="1.51"/><path d="M276,-16L218,-23L231,18Z" fill="#9ea0be" stroke="#9ea0be" stroke-width="1.51"/><path d="M144,-3L116,-8L106,20Z" fill="#bce3ca" stroke="#bce3ca" stroke-width="1.51"/><path d="M76,35L41,32L68,45Z" fill="#e2f3b4" stroke="#e2f3b4" stroke-width="1.51"/><path d="M80,-27L116,-8L125,-72Z" fill="#c7e8c9" stroke="#c7e8c9" stroke-width="1.51"/><path d="M48,203L58,232L101,228Z" fill="#89afb6" stroke="#89afb6" stroke-width="1.51"/><path d="M58,232L75,248L101,228Z" fill="#81a3b2" stroke="#81a3b2" stroke-width="1.51"/><path d="M37,72L17,118L79,89Z" fill="#cdeab4" stroke="#cdeab4" stroke-width="1.51"/><path d="M27,140L21,181L65,164Z" fill="#a6d6bc" stroke="#a6d6bc" stroke-width="1.51"/><path d="M48,203L3,242L58,232Z" fill="#9bb2b4" stroke="#9bb2b4" stroke-width="1.51"/><path d="M-1,179L21,181L27,140Z" fill="#a9d6c6" stroke="#a9d6c6" stroke-width="1.51"/><path d="M163,300L184,291L181,254Z" fill="#3267ab" stroke="#3267ab" stroke-width="1.51"/><path d="M75,248L115,276L101,228Z" fill="#6d94af" stroke="#6d94af" stroke-width="1.51"/><path d="M39,-7L41,32L76,35Z" fill="#ebf7bb" stroke="#ebf7bb" stroke-width="1.51"/><path d="M37,72L-5,92L17,118Z" fill="#d4eebf" stroke="#d4eebf" stroke-width="1.51"/><path d="M193,-3L145,-62L144,-3Z" fill="#aad4cf" stroke="#aad4cf" stroke-width="1.51"/><path d="M231,18L218,-23L193,-3Z" fill="#a0b3c5" stroke="#a0b3c5" stroke-width="1.51"/><path d="M282,16L231,18L251,45Z" fill="#9996ae" stroke="#9996ae" stroke-width="1.51"/><path d="M311,40L282,16L251,45Z" fill="#8e8999" stroke="#8e8999" stroke-width="1.51"/><path d="M163,300L181,254L143,257Z" fill="#3874af" stroke="#3874af" stroke-width="1.51"/><path d="M323,45L311,40L310,103Z" fill="#787e87" stroke="#787e87" stroke-width="1.51"/><path d="M310,103L311,40L252,95Z" fill="#757e8e" stroke="#757e8e" stroke-width="1.51"/><path d="M238,311L258,271L224,255Z" fill="#26429b" stroke="#26429b" stroke-width="1.51"/><path d="M224,255L258,271L230,235Z" fill="#2550a1" stroke="#2550a1" stroke-width="1.51"/><path d="M115,276L163,300L143,257Z" fill="#4778ad" stroke="#4778ad" stroke-width="1.51"/><path d="M238,311L273,292L258,271Z" fill="#22348e" stroke="#22348e" stroke-width="1.51"/><path d="M21,181L3,242L48,203Z" fill="#9fbfbf" stroke="#9fbfbf" stroke-width="1.51"/><path d="M16,267L70,292L75,248Z" fill="#8f95a9" stroke="#8f95a9" stroke-width="1.51"/><path d="M-17,146L-1,179L27,140Z" fill="#b0dbcd" stroke="#b0dbcd" stroke-width="1.51"/><path d="M-17,146L27,140L17,118Z" fill="#b9e1c7" stroke="#b9e1c7" stroke-width="1.51"/><path d="M308,-27L276,-16L282,16Z" fill="#8f89a2" stroke="#8f89a2" stroke-width="1.51"/><path d="M348,56L323,45L310,103Z" fill="#767d87" stroke="#767d87" stroke-width="1.51"/><path d="M-13,77L-5,92L37,72Z" fill="#e2f4c3" stroke="#e2f4c3" stroke-width="1.51"/><path d="M361,130L357,90L310,103Z" fill="#597388" stroke="#597388" stroke-width="1.51"/><path d="M291,188L336,187L312,129Z" fill="#2a628c" stroke="#2a628c" stroke-width="1.51"/><path d="M321,227L336,187L291,188Z" fill="#1b558a" stroke="#1b558a" stroke-width="1.51"/><path d="M41,32L-13,77L37,72Z" fill="#e8f6ba" stroke="#e8f6ba" stroke-width="1.51"/><path d="M116,-8L80,-27L106,20Z" fill="#cdebc9" stroke="#cdebc9" stroke-width="1.51"/><path d="M145,-62L116,-8L144,-3Z" fill="#b5dfcd" stroke="#b5dfcd" stroke-width="1.51"/><path d="M308,-27L282,16L311,40Z" fill="#888393" stroke="#888393" stroke-width="1.51"/><path d="M282,16L276,-16L231,18Z" fill="#9c92b5" stroke="#9c92b5" stroke-width="1.51"/><path d="M258,271L321,227L257,211Z" fill="#204792" stroke="#204792" stroke-width="1.51"/><path d="M-33,127L-17,146L17,118Z" fill="#bde3cb" stroke="#bde3cb" stroke-width="1.51"/><path d="M80,-27L39,-7L76,35Z" fill="#e8f6c6" stroke="#e8f6c6" stroke-width="1.51"/><path d="M-5,92L-33,127L17,118Z" fill="#c9e9c9" stroke="#c9e9c9" stroke-width="1.51"/><path d="M-12,15L-13,77L41,32Z" fill="#f5fbc2" stroke="#f5fbc2" stroke-width="1.51"/><path d="M75,248L70,292L115,276Z" fill="#788baa" stroke="#788baa" stroke-width="1.51"/><path d="M115,276L156,324L163,300Z" fill="#3c6e9e" stroke="#3c6e9e" stroke-width="1.51"/><path d="M16,267L75,248L58,232Z" fill="#92a0ae" stroke="#92a0ae" stroke-width="1.51"/><path d="M194,-72L145,-62L193,-3Z" fill="#a6ccce" stroke="#a6ccce" stroke-width="1.51"/><path d="M-13,-52L-20,-1L39,-7Z" fill="#ffffd8" stroke="#ffffd8" stroke-width="1.51"/><path d="M194,-72L193,-3L218,-23Z" fill="#a2bbc9" stroke="#a2bbc9" stroke-width="1.51"/><path d="M276,-16L234,-52L218,-23Z" fill="#9e9fbe" stroke="#9e9fbe" stroke-width="1.51"/><path d="M361,130L310,103L312,129Z" fill="#4c6f89" stroke="#4c6f89" stroke-width="1.51"/><path d="M336,187L361,130L312,129Z" fill="#38688b" stroke="#38688b" stroke-width="1.51"/><path d="M389,115L361,130L393,152Z" fill="#446c8a" stroke="#446c8a" stroke-width="1.51"/><path d="M321,227L340,217L336,187Z" fill="#1a4f88" stroke="#1a4f88" stroke-width="1.51"/><path d="M323,251L340,217L321,227Z" fill="#184282" stroke="#184282" stroke-width="1.51"/><path d="M258,271L323,251L321,227Z" fill="#17397d" stroke="#17397d" stroke-width="1.51"/><path d="M238,311L224,255L184,291Z" fill="#264f9e" stroke="#264f9e" stroke-width="1.51"/><path d="M357,90L348,56L310,103Z" fill="#6e7a87" stroke="#6e7a87" stroke-width="1.51"/><path d="M352,-16L308,-27L311,40Z" fill="#898498" stroke="#898498" stroke-width="1.51"/><path d="M212,329L238,311L184,291Z" fill="#1d488c" stroke="#1d488c" stroke-width="1.51"/><path d="M185,328L184,291L163,300Z" fill="#285e97" stroke="#285e97" stroke-width="1.51"/><path d="M93,311L156,324L115,276Z" fill="#4e7398" stroke="#4e7398" stroke-width="1.51"/><path d="M70,292L93,311L115,276Z" fill="#6d809f" stroke="#6d809f" stroke-width="1.51"/><path d="M299,283L323,251L258,271Z" fill="#1a317e" stroke="#1a317e" stroke-width="1.51"/><path d="M70,292L63,327L93,311Z" fill="#758090" stroke="#758090" stroke-width="1.51"/><path d="M-1,179L3,242L21,181Z" fill="#a2c6ca" stroke="#a2c6ca" stroke-width="1.51"/><path d="M-26,212L3,242L-1,179Z" fill="#a2bfcb" stroke="#a2bfcb" stroke-width="1.51"/><path d="M156,324L185,328L163,300Z" fill="#275f8f" stroke="#275f8f" stroke-width="1.51"/><path d="M-46,103L-33,127L-5,92Z" fill="#cdebc9" stroke="#cdebc9" stroke-width="1.51"/><path d="M-17,146L-34,176L-1,179Z" fill="#abd7ce" stroke="#abd7ce" stroke-width="1.51"/><path d="M234,-52L194,-72L218,-23Z" fill="#a0b1c5" stroke="#a0b1c5" stroke-width="1.51"/><path d="M273,292L299,283L258,271Z" fill="#1f2f88" stroke="#1f2f88" stroke-width="1.51"/><path d="M317,326L299,283L273,292Z" fill="#12246b" stroke="#12246b" stroke-width="1.51"/><path d="M238,311L254,328L273,292Z" fill="#1c3080" stroke="#1c3080" stroke-width="1.51"/><path d="M185,328L212,329L184,291Z" fill="#1d528d" stroke="#1d528d" stroke-width="1.51"/><path d="M145,-62L125,-72L116,-8Z" fill="#b9e1cc" stroke="#b9e1cc" stroke-width="1.51"/><path d="M194,-72L125,-72L145,-62Z" fill="#acd8cf" stroke="#acd8cf" stroke-width="1.51"/><path d="M3,242L16,267L58,232Z" fill="#9aa4b4" stroke="#9aa4b4" stroke-width="1.51"/><path d="M402,74L354,40L348,56Z" fill="#7b7f86" stroke="#7b7f86" stroke-width="1.51"/><path d="M348,56L354,40L323,45Z" fill="#808086" stroke="#808086" stroke-width="1.51"/><path d="M276,-16L263,-72L234,-52Z" fill="#9d96ba" stroke="#9d96ba" stroke-width="1.51"/><path d="M402,74L348,56L357,90Z" fill="#747c86" stroke="#747c86" stroke-width="1.51"/><path d="M-33,127L-34,176L-17,146Z" fill="#b3ddce" stroke="#b3ddce" stroke-width="1.51"/><path d="M3,242L-18,284L16,267Z" fill="#9e9dbd" stroke="#9e9dbd" stroke-width="1.51"/><path d="M352,-16L311,40L323,45Z" fill="#86838e" stroke="#86838e" stroke-width="1.51"/><path d="M234,-52L263,-72L194,-72Z" fill="#9fa7c1" stroke="#9fa7c1" stroke-width="1.51"/><path d="M-34,176L-26,212L-1,179Z" fill="#a6ccce" stroke="#a6ccce" stroke-width="1.51"/><path d="M39,-7L-12,15L41,32Z" fill="#f7fcc7" stroke="#f7fcc7" stroke-width="1.51"/><path d="M-13,77L-46,103L-5,92Z" fill="#dbf1c7" stroke="#dbf1c7" stroke-width="1.51"/><path d="M-20,-1L-12,15L39,-7Z" fill="#feffd7" stroke="#feffd7" stroke-width="1.51"/><path d="M16,267L48,305L70,292Z" fill="#908ca1" stroke="#908ca1" stroke-width="1.51"/><path d="M93,311L100,333L156,324Z" fill="#496e89" stroke="#496e89" stroke-width="1.51"/><path d="M156,324L155,374L185,328Z" fill="#275e8c" stroke="#275e8c" stroke-width="1.51"/><path d="M202,385L231,367L212,329Z" fill="#184382" stroke="#184382" stroke-width="1.51"/><path d="M63,327L100,333L93,311Z" fill="#677887" stroke="#677887" stroke-width="1.51"/><path d="M-33,127L-46,103L-34,176Z" fill="#bae2cc" stroke="#bae2cc" stroke-width="1.51"/><path d="M-44,46L-46,103L-13,77Z" fill="#e6f5c6" stroke="#e6f5c6" stroke-width="1.51"/><path d="M231,367L254,328L212,329Z" fill="#17397d" stroke="#17397d" stroke-width="1.51"/><path d="M212,329L254,328L238,311Z" fill="#17377d" stroke="#17377d" stroke-width="1.51"/><path d="M299,283L338,269L323,251Z" fill="#172f79" stroke="#172f79" stroke-width="1.51"/><path d="M323,251L338,269L340,217Z" fill="#163a7e" stroke="#163a7e" stroke-width="1.51"/><path d="M393,152L361,130L336,187Z" fill="#32668c" stroke="#32668c" stroke-width="1.51"/><path d="M349,282L338,269L299,283Z" fill="#172a76" stroke="#172a76" stroke-width="1.51"/><path d="M393,152L336,187L391,195Z" fill="#265e8c" stroke="#265e8c" stroke-width="1.51"/><path d="M361,130L389,115L357,90Z" fill="#557289" stroke="#557289" stroke-width="1.51"/><path d="M296,-62L263,-72L276,-16Z" fill="#958dab" stroke="#958dab" stroke-width="1.51"/><path d="M48,305L63,327L70,292Z" fill="#7e8391" stroke="#7e8391" stroke-width="1.51"/><path d="M65,370L63,327L15,353Z" fill="#7e8086" stroke="#7e8086" stroke-width="1.51"/><path d="M391,195L336,187L340,217Z" fill="#1b558a" stroke="#1b558a" stroke-width="1.51"/><path d="M-12,15L-44,46L-13,77Z" fill="#f4fbc5" stroke="#f4fbc5" stroke-width="1.51"/><path d="M-12,15L-48,21L-44,46Z" fill="#f9fdcb" stroke="#f9fdcb" stroke-width="1.51"/><path d="M31,-67L39,-7L80,-27Z" fill="#f0f9c5" stroke="#f0f9c5" stroke-width="1.51"/><path d="M263,-72L60,-73L194,-72Z" fill="#a7cfce" stroke="#a7cfce" stroke-width="1.51"/><path d="M194,-72L60,-73L125,-72Z" fill="#bae1cc" stroke="#bae1cc" stroke-width="1.51"/><path d="M125,-72L60,-73L80,-27Z" fill="#d7efc8" stroke="#d7efc8" stroke-width="1.51"/><path d="M308,-27L296,-62L276,-16Z" fill="#8d879d" stroke="#8d879d" stroke-width="1.51"/><path d="M333,-67L296,-62L308,-27Z" fill="#898498" stroke="#898498" stroke-width="1.51"/><path d="M401,208L391,195L340,217Z" fill="#1a5189" stroke="#1a5189" stroke-width="1.51"/><path d="M399,5L352,-16L354,40Z" fill="#888393" stroke="#888393" stroke-width="1.51"/><path d="M354,40L352,-16L323,45Z" fill="#86838e" stroke="#86838e" stroke-width="1.51"/><path d="M381,270L401,208L340,217Z" fill="#184282" stroke="#184282" stroke-width="1.51"/><path d="M317,326L349,282L299,283Z" fill="#11246a" stroke="#11246a" stroke-width="1.51"/><path d="M60,-73L31,-67L80,-27Z" fill="#ecf8c6" stroke="#ecf8c6" stroke-width="1.51"/><path d="M-34,176L-56,212L-26,212Z" fill="#a4c7cd" stroke="#a4c7cd" stroke-width="1.51"/><path d="M-64,249L-18,284L3,242Z" fill="#9ea1be" stroke="#9ea1be" stroke-width="1.51"/><path d="M16,267L-18,284L48,305Z" fill="#9990ae" stroke="#9990ae" stroke-width="1.51"/><path d="M-46,103L-56,212L-34,176Z" fill="#acd9cf" stroke="#acd9cf" stroke-width="1.51"/><path d="M-64,249L-56,212L-46,103Z" fill="#a6cdce" stroke="#a6cdce" stroke-width="1.51"/><path d="M389,115L402,74L357,90Z" fill="#667787" stroke="#667787" stroke-width="1.51"/><path d="M393,152L402,74L389,115Z" fill="#537189" stroke="#537189" stroke-width="1.51"/><path d="M401,208L402,74L393,152Z" fill="#3c698b" stroke="#3c698b" stroke-width="1.51"/><path d="M-44,46L-48,21L-46,103Z" fill="#eff9c5" stroke="#eff9c5" stroke-width="1.51"/><path d="M-20,-1L-48,21L-12,15Z" fill="#fdfed3" stroke="#fdfed3" stroke-width="1.51"/><path d="M-36,-20L-48,21L-20,-1Z" fill="#ffffd9" stroke="#ffffd9" stroke-width="1.51"/><path d="M-64,249L3,242L-26,212Z" fill="#a0afc4" stroke="#a0afc4" stroke-width="1.51"/><path d="M100,333L155,374L156,324Z" fill="#3a698b" stroke="#3a698b" stroke-width="1.51"/><path d="M125,388L155,374L100,333Z" fill="#426b8b" stroke="#426b8b" stroke-width="1.51"/><path d="M391,195L401,208L393,152Z" fill="#235b8c" stroke="#235b8c" stroke-width="1.51"/><path d="M381,270L340,217L338,269Z" fill="#17377d" stroke="#17377d" stroke-width="1.51"/><path d="M254,328L317,326L273,292Z" fill="#12246b" stroke="#12246b" stroke-width="1.51"/><path d="M202,385L212,329L185,328Z" fill="#1a4c87" stroke="#1a4c87" stroke-width="1.51"/><path d="M315,382L317,326L254,328Z" fill="#0a1e5b" stroke="#0a1e5b" stroke-width="1.51"/><path d="M-13,-52L-36,-20L-20,-1Z" fill="#ffffd9" stroke="#ffffd9" stroke-width="1.51"/><path d="M31,-67L-13,-52L39,-7Z" fill="#fbfdcf" stroke="#fbfdcf" stroke-width="1.51"/><path d="M388,304L381,270L349,282Z" fill="#152772" stroke="#152772" stroke-width="1.51"/><path d="M349,282L381,270L338,269Z" fill="#172d77" stroke="#172d77" stroke-width="1.51"/><path d="M352,-16L333,-67L308,-27Z" fill="#898498" stroke="#898498" stroke-width="1.51"/><path d="M296,-62L333,-67L263,-72Z" fill="#8b869a" stroke="#8b869a" stroke-width="1.51"/><path d="M391,-67L333,-67L352,-16Z" fill="#898498" stroke="#898498" stroke-width="1.51"/><path d="M315,382L338,340L317,326Z" fill="#081d58" stroke="#081d58" stroke-width="1.51"/><path d="M155,374L202,385L185,328Z" fill="#1f588b" stroke="#1f588b" stroke-width="1.51"/><path d="M-64,-72L-64,249L-46,103Z" fill="#d9f0c7" stroke="#d9f0c7" stroke-width="1.51"/><path d="M-56,212L-64,249L-26,212Z" fill="#a1b6c7" stroke="#a1b6c7" stroke-width="1.51"/><path d="M402,74L399,5L354,40Z" fill="#838187" stroke="#838187" stroke-width="1.51"/><path d="M155,374L125,388L202,385Z" fill="#29608c" stroke="#29608c" stroke-width="1.51"/><path d="M63,327L65,370L100,333Z" fill="#6f7b87" stroke="#6f7b87" stroke-width="1.51"/><path d="M15,353L63,327L48,305Z" fill="#818086" stroke="#818086" stroke-width="1.51"/><path d="M15,353L48,305L-18,342Z" fill="#878391" stroke="#878391" stroke-width="1.51"/><path d="M65,370L125,388L100,333Z" fill="#5d7488" stroke="#5d7488" stroke-width="1.51"/><path d="M317,326L338,340L349,282Z" fill="#0a1e5c" stroke="#0a1e5c" stroke-width="1.51"/><path d="M253,390L254,328L231,367Z" fill="#17317a" stroke="#17317a" stroke-width="1.51"/><path d="M16,363L15,353L-18,342Z" fill="#898496" stroke="#898496" stroke-width="1.51"/><path d="M202,385L253,390L231,367Z" fill="#163a7e" stroke="#163a7e" stroke-width="1.51"/><path d="M125,388L253,390L202,385Z" fill="#1a5189" stroke="#1a5189" stroke-width="1.51"/><path d="M399,5L393,-33L352,-16Z" fill="#898498" stroke="#898498" stroke-width="1.51"/><path d="M-18,342L48,305L-18,284Z" fill="#8e88a0" stroke="#8e88a0" stroke-width="1.51"/><path d="M15,353L16,363L65,370Z" fill="#848289" stroke="#848289" stroke-width="1.51"/><path d="M65,370L4,389L125,388Z" fill="#767d87" stroke="#767d87" stroke-width="1.51"/><path d="M386,322L388,304L349,282Z" fill="#0f2266" stroke="#0f2266" stroke-width="1.51"/><path d="M381,270L388,304L401,208Z" fill="#17337a" stroke="#17337a" stroke-width="1.51"/><path d="M-36,334L-18,342L-18,284Z" fill="#8a859a" stroke="#8a859a" stroke-width="1.51"/><path d="M-64,249L-59,299L-18,284Z" fill="#9d96b9" stroke="#9d96b9" stroke-width="1.51"/><path d="M-59,299L-36,334L-18,284Z" fill="#918aa5" stroke="#918aa5" stroke-width="1.51"/><path d="M-18,342L4,389L16,363Z" fill="#898497" stroke="#898497" stroke-width="1.51"/><path d="M338,340L386,322L349,282Z" fill="#0a1f5d" stroke="#0a1f5d" stroke-width="1.51"/><path d="M388,304L402,381L401,208Z" fill="#11246a" stroke="#11246a" stroke-width="1.51"/><path d="M351,366L386,322L338,340Z" fill="#081d58" stroke="#081d58" stroke-width="1.51"/><path d="M253,390L315,382L254,328Z" fill="#12256c" stroke="#12256c" stroke-width="1.51"/><path d="M399,5L391,-67L393,-33Z" fill="#898498" stroke="#898498" stroke-width="1.51"/><path d="M393,-33L391,-67L352,-16Z" fill="#898498" stroke="#898498" stroke-width="1.51"/><path d="M333,-67L391,-67L263,-72Z" fill="#898498" stroke="#898498" stroke-width="1.51"/><path d="M315,382L351,366L338,340Z" fill="#081d58" stroke="#081d58" stroke-width="1.51"/><path d="M31,-67L-64,-72L-13,-52Z" fill="#ffffd9" stroke="#ffffd9" stroke-width="1.51"/><path d="M-13,-52L-64,-72L-36,-20Z" fill="#ffffd9" stroke="#ffffd9" stroke-width="1.51"/><path d="M-36,-20L-64,-72L-48,21Z" fill="#ffffd9" stroke="#ffffd9" stroke-width="1.51"/><path d="M-48,21L-64,-72L-46,103Z" fill="#fbfed0" stroke="#fbfed0" stroke-width="1.51"/><path d="M60,-73L-64,-72L31,-67Z" fill="#fdfed4" stroke="#fdfed4" stroke-width="1.51"/><path d="M-38,383L4,389L-18,342Z" fill="#898498" stroke="#898498" stroke-width="1.51"/><path d="M16,363L4,389L65,370Z" fill="#85828b" stroke="#85828b" stroke-width="1.51"/><path d="M125,388L4,389L253,390Z" fill="#416b8b" stroke="#416b8b" stroke-width="1.51"/><path d="M-36,334L-38,383L-18,342Z" fill="#898498" stroke="#898498" stroke-width="1.51"/><path d="M-59,299L-38,383L-36,334Z" fill="#898498" stroke="#898498" stroke-width="1.51"/><path d="M315,382L402,381L351,366Z" fill="#081d58" stroke="#081d58" stroke-width="1.51"/><path d="M351,366L402,381L386,322Z" fill="#081d58" stroke="#081d58" stroke-width="1.51"/><path d="M386,322L402,381L388,304Z" fill="#081d58" stroke="#081d58" stroke-width="1.51"/><path d="M401,208L402,381L402,74Z" fill="#194985" stroke="#194985" stroke-width="1.51"/><path d="M253,390L402,381L315,382Z" fill="#081d58" stroke="#081d58" stroke-width="1.51"/></svg>