<svg xmlns="http://www.w3.org/2000/svg" width="300" height="300"><path d="M147,158L161,203L180,166Z" fill="#ea509c" stroke="#ea509c" stroke-width="1.51"/><path d="M161,203L191,185L180,166Z" fill="#e23f99" stroke="#e23f99" stroke-width="1.51"/><path d="M147,158L104,193L161,203Z" fill="#ec5ea0" stroke="#ec5ea0" stroke-width="1.51"/><path d="M161,203L200,224L191,185Z" fill="#d32f92" stroke="#d32f92" stroke-width="1.51"/><path d="M148,245L200,224L161,203Z" fill="#cc318d" stroke="#cc318d" stroke-width="1.51"/><path d="M147,158L114,135L104,193Z" fill="#f577a7" stroke="#f577a7" stroke-width="1.51"/><path d="M136,118L114,135L147,158Z" fill="#f980a9" stroke="#f980a9" stroke-width="1.51"/><path d="M180,166L136,118L147,158Z" fill="#f668a1" stroke="#f668a1" stroke-width="1.51"/><path d="M102,231L148,245L161,203Z" fill="#d24c93" stroke="#d24c93" stroke-width="1.51"/><path d="M104,193L102,231L161,203Z" fill="#df5f9d" stroke="#df5f9d" stroke-width="1.51"/><path d="M191,185L241,165L180,166Z" fill="#d83994" stroke="#d83994" stroke-width="1.51"/><path d="M180,166L202,92L136,118Z" fill="#f06ea5" stroke="#f06ea5" stroke-width="1.51"/><path d="M200,224L241,187L191,185Z" fill="#c7228b" stroke="#c7228b" stroke-width="1.51"/><path d="M241,187L241,165L191,185Z" fill="#c9298b" stroke="#c9298b" stroke-width="1.51"/><path d="M136,118L111,106L114,135Z" fill="#fa95b1" stroke="#fa95b1" stroke-width="1.51"/><path d="M114,135L59,177L104,193Z" fill="#f486ac" stroke="#f486ac" stroke-width="1.51"/><path d="M141,58L111,106L136,118Z" fill="#fa9db3" stroke="#fa9db3" stroke-width="1.51"/><path d="M148,245L177,271L200,224Z" fill="#bb2a8a" stroke="#bb2a8a" stroke-width="1.51"/><path d="M102,231L142,269L148,245Z" fill="#c34e93" stroke="#c34e93" stroke-width="1.51"/><path d="M200,224L228,241L241,187Z" fill="#b30b81" stroke="#b30b81" stroke-width="1.51"/><path d="M177,271L228,241L200,224Z" fill="#ae1583" stroke="#ae1583" stroke-width="1.51"/><path d="M142,269L177,271L148,245Z" fill="#b6378c" stroke="#b6378c" stroke-width="1.51"/><path d="M241,165L202,92L180,166Z" fill="#de5098" stroke="#de5098" stroke-width="1.51"/><path d="M202,92L181,82L136,118Z" fill="#f281aa" stroke="#f281aa" stroke-width="1.51"/><path d="M53,134L59,177L114,135Z" fill="#fb9ab1" stroke="#fb9ab1" stroke-width="1.51"/><path d="M104,193L68,243L102,231Z" fill="#d86e9e" stroke="#d86e9e" stroke-width="1.51"/><path d="M102,231L103,283L142,269Z" fill="#bb5795" stroke="#bb5795" stroke-width="1.51"/><path d="M59,177L68,243L104,193Z" fill="#e47da6" stroke="#e47da6" stroke-width="1.51"/><path d="M34,277L66,272L68,243Z" fill="#bc74a2" stroke="#bc74a2" stroke-width="1.51"/><path d="M64,107L53,134L114,135Z" fill="#fba9b7" stroke="#fba9b7" stroke-width="1.51"/><path d="M68,243L103,283L102,231Z" fill="#c2679a" stroke="#c2679a" stroke-width="1.51"/><path d="M142,269L162,302L177,271Z" fill="#a93088" stroke="#a93088" stroke-width="1.51"/><path d="M111,106L64,107L114,135Z" fill="#fba5b7" stroke="#fba5b7" stroke-width="1.51"/><path d="M68,76L64,107L111,106Z" fill="#fcb8bc" stroke="#fcb8bc" stroke-width="1.51"/><path d="M241,165L245,95L202,92Z" fill="#d15c97" stroke="#d15c97" stroke-width="1.51"/><path d="M202,92L230,54L181,82Z" fill="#e47da6" stroke="#e47da6" stroke-width="1.51"/><path d="M263,97L245,95L241,165Z" fill="#c35796" stroke="#c35796" stroke-width="1.51"/><path d="M181,82L141,58L136,118Z" fill="#fa92ae" stroke="#fa92ae" stroke-width="1.51"/><path d="M201,23L141,58L181,82Z" fill="#f494b5" stroke="#f494b5" stroke-width="1.51"/><path d="M122,318L162,302L142,269Z" fill="#a33c88" stroke="#a33c88" stroke-width="1.51"/><path d="M177,271L241,272L228,241Z" fill="#9b097e" stroke="#9b097e" stroke-width="1.51"/><path d="M274,248L291,182L241,187Z" fill="#9c1080" stroke="#9c1080" stroke-width="1.51"/><path d="M291,182L285,147L241,165Z" fill="#ac2f89" stroke="#ac2f89" stroke-width="1.51"/><path d="M182,332L241,272L177,271Z" fill="#91117e" stroke="#91117e" stroke-width="1.51"/><path d="M141,58L122,55L111,106Z" fill="#fcabb8" stroke="#fcabb8" stroke-width="1.51"/><path d="M291,182L241,165L241,187Z" fill="#b22689" stroke="#b22689" stroke-width="1.51"/><path d="M274,248L241,187L228,241Z" fill="#9f017c" stroke="#9f017c" stroke-width="1.51"/><path d="M103,283L122,318L142,269Z" fill="#a74c8f" stroke="#a74c8f" stroke-width="1.51"/><path d="M68,243L66,272L103,283Z" fill="#ba6a9b" stroke="#ba6a9b" stroke-width="1.51"/><path d="M8,234L68,243L59,177Z" fill="#de84ad" stroke="#de84ad" stroke-width="1.51"/><path d="M285,147L263,97L241,165Z" fill="#b84690" stroke="#b84690" stroke-width="1.51"/><path d="M245,95L230,54L202,92Z" fill="#d6739e" stroke="#d6739e" stroke-width="1.51"/><path d="M241,272L274,248L228,241Z" fill="#8b017a" stroke="#8b017a" stroke-width="1.51"/><path d="M64,107L36,107L53,134Z" fill="#fcb8c2" stroke="#fcb8c2" stroke-width="1.51"/><path d="M122,55L68,76L111,106Z" fill="#fcb7bc" stroke="#fcb7bc" stroke-width="1.51"/><path d="M68,76L36,107L64,107Z" fill="#fcc1c4" stroke="#fcc1c4" stroke-width="1.51"/><path d="M16,153L16,176L59,177Z" fill="#f79fbe" stroke="#f79fbe" stroke-width="1.51"/><path d="M261,39L230,54L245,95Z" fill="#c976a1" stroke="#c976a1" stroke-width="1.51"/><path d="M141,58L163,7L122,55Z" fill="#fdacc0" stroke="#fdacc0" stroke-width="1.51"/><path d="M16,153L59,177L53,134Z" fill="#fca2bc" stroke="#fca2bc" stroke-width="1.51"/><path d="M243,334L260,291L241,272Z" fill="#6d0072" stroke="#6d0072" stroke-width="1.51"/><path d="M57,334L122,318L103,283Z" fill="#a25b92" stroke="#a25b92" stroke-width="1.51"/><path d="M36,107L16,153L53,134Z" fill="#fdb5c4" stroke="#fdb5c4" stroke-width="1.51"/><path d="M241,272L260,291L274,248Z" fill="#780076" stroke="#780076" stroke-width="1.51"/><path d="M182,332L177,271L162,302Z" fill="#982383" stroke="#982383" stroke-width="1.51"/><path d="M230,54L222,40L181,82Z" fill="#e181aa" stroke="#e181aa" stroke-width="1.51"/><path d="M261,39L222,40L230,54Z" fill="#d07eaa" stroke="#d07eaa" stroke-width="1.51"/><path d="M166,343L182,332L162,302Z" fill="#992683" stroke="#992683" stroke-width="1.51"/><path d="M291,182L315,155L285,147Z" fill="#9e2d85" stroke="#9e2d85" stroke-width="1.51"/><path d="M285,147L302,107L263,97Z" fill="#ac5292" stroke="#ac5292" stroke-width="1.51"/><path d="M263,97L261,39L245,95Z" fill="#c06e9c" stroke="#c06e9c" stroke-width="1.51"/><path d="M328,208L315,155L291,182Z" fill="#951d82" stroke="#951d82" stroke-width="1.51"/><path d="M310,226L291,182L274,248Z" fill="#860378" stroke="#860378" stroke-width="1.51"/><path d="M317,259L310,226L274,248Z" fill="#6f0072" stroke="#6f0072" stroke-width="1.51"/><path d="M66,272L57,334L103,283Z" fill="#a56696" stroke="#a56696" stroke-width="1.51"/><path d="M8,234L34,277L68,243Z" fill="#c67eab" stroke="#c67eab" stroke-width="1.51"/><path d="M315,155L302,107L285,147Z" fill="#a14089" stroke="#a14089" stroke-width="1.51"/><path d="M16,176L8,234L59,177Z" fill="#ed93ba" stroke="#ed93ba" stroke-width="1.51"/><path d="M-11,176L8,234L16,176Z" fill="#ee9ac0" stroke="#ee9ac0" stroke-width="1.51"/><path d="M222,40L201,23L181,82Z" fill="#e789b1" stroke="#e789b1" stroke-width="1.51"/><path d="M72,39L26,82L68,76Z" fill="#fdcfcb" stroke="#fdcfcb" stroke-width="1.51"/><path d="M122,318L166,343L162,302Z" fill="#a03486" stroke="#a03486" stroke-width="1.51"/><path d="M182,332L243,334L241,272Z" fill="#7e0075" stroke="#7e0075" stroke-width="1.51"/><path d="M189,361L166,343L104,368Z" fill="#9f3285" stroke="#9f3285" stroke-width="1.51"/><path d="M36,107L-10,92L16,153Z" fill="#fec4ce" stroke="#fec4ce" stroke-width="1.51"/><path d="M68,76L26,82L36,107Z" fill="#fdcaca" stroke="#fdcaca" stroke-width="1.51"/><path d="M72,39L68,76L122,55Z" fill="#fdc6c5" stroke="#fdc6c5" stroke-width="1.51"/><path d="M94,17L72,39L122,55Z" fill="#fdc8cb" stroke="#fdc8cb" stroke-width="1.51"/><path d="M302,107L288,75L263,97Z" fill="#ac5f95" stroke="#ac5f95" stroke-width="1.51"/><path d="M222,40L237,-17L201,23Z" fill="#de8db5" stroke="#de8db5" stroke-width="1.51"/><path d="M16,153L-11,176L16,176Z" fill="#f9a7c5" stroke="#f9a7c5" stroke-width="1.51"/><path d="M-31,150L-11,176L16,153Z" fill="#fcaec8" stroke="#fcaec8" stroke-width="1.51"/><path d="M361,224L328,208L310,226Z" fill="#800276" stroke="#800276" stroke-width="1.51"/><path d="M310,226L328,208L291,182Z" fill="#880c7b" stroke="#880c7b" stroke-width="1.51"/><path d="M201,23L163,7L141,58Z" fill="#f8a0be" stroke="#f8a0be" stroke-width="1.51"/><path d="M182,-17L136,-8L163,7Z" fill="#fdadc8" stroke="#fdadc8" stroke-width="1.51"/><path d="M288,75L261,39L263,97Z" fill="#b76d9c" stroke="#b76d9c" stroke-width="1.51"/><path d="M114,-2L94,17L122,55Z" fill="#fdc6cd" stroke="#fdc6cd" stroke-width="1.51"/><path d="M16,34L-10,92L26,82Z" fill="#fedcd8" stroke="#fedcd8" stroke-width="1.51"/><path d="M189,361L243,334L182,332Z" fill="#890d7b" stroke="#890d7b" stroke-width="1.51"/><path d="M290,303L317,259L274,248Z" fill="#610070" stroke="#610070" stroke-width="1.51"/><path d="M290,303L274,248L260,291Z" fill="#670072" stroke="#670072" stroke-width="1.51"/><path d="M243,334L290,303L260,291Z" fill="#610070" stroke="#610070" stroke-width="1.51"/><path d="M104,368L166,343L122,318Z" fill="#a1448b" stroke="#a1448b" stroke-width="1.51"/><path d="M166,343L189,361L182,332Z" fill="#961f82" stroke="#961f82" stroke-width="1.51"/><path d="M34,277L57,334L66,272Z" fill="#a76e9f" stroke="#a76e9f" stroke-width="1.51"/><path d="M7,320L57,334L34,277Z" fill="#a473a5" stroke="#a473a5" stroke-width="1.51"/><path d="M328,208L345,163L315,155Z" fill="#972282" stroke="#972282" stroke-width="1.51"/><path d="M315,155L370,123L302,107Z" fill="#a1468c" stroke="#a1468c" stroke-width="1.51"/><path d="M302,107L316,75L288,75Z" fill="#a35f94" stroke="#a35f94" stroke-width="1.51"/><path d="M370,180L345,163L328,208Z" fill="#951b81" stroke="#951b81" stroke-width="1.51"/><path d="M136,-8L114,-2L122,55Z" fill="#febfcc" stroke="#febfcc" stroke-width="1.51"/><path d="M288,75L314,14L261,39Z" fill="#ac73a3" stroke="#ac73a3" stroke-width="1.51"/><path d="M370,123L316,75L302,107Z" fill="#a25791" stroke="#a25791" stroke-width="1.51"/><path d="M163,7L136,-8L122,55Z" fill="#feb4c6" stroke="#feb4c6" stroke-width="1.51"/><path d="M182,-17L163,7L201,23Z" fill="#f5a0c4" stroke="#f5a0c4" stroke-width="1.51"/><path d="M16,34L72,39L40,-2Z" fill="#fee2df" stroke="#fee2df" stroke-width="1.51"/><path d="M16,34L26,82L72,39Z" fill="#fddbd7" stroke="#fddbd7" stroke-width="1.51"/><path d="M26,82L-10,92L36,107Z" fill="#fecfd2" stroke="#fecfd2" stroke-width="1.51"/><path d="M8,234L-29,260L34,277Z" fill="#c386b3" stroke="#c386b3" stroke-width="1.51"/><path d="M-11,176L-27,225L8,234Z" fill="#e595bc" stroke="#e595bc" stroke-width="1.51"/><path d="M-50,166L-27,225L-11,176Z" fill="#f39ec4" stroke="#f39ec4" stroke-width="1.51"/><path d="M-10,92L-31,150L16,153Z" fill="#ffbfce" stroke="#ffbfce" stroke-width="1.51"/><path d="M237,-17L182,-17L201,23Z" fill="#e897bd" stroke="#e897bd" stroke-width="1.51"/><path d="M237,-17L222,40L261,39Z" fill="#cf85b0" stroke="#cf85b0" stroke-width="1.51"/><path d="M57,334L104,368L122,318Z" fill="#a25b92" stroke="#a25b92" stroke-width="1.51"/><path d="M40,-2L72,39L94,17Z" fill="#fddbd6" stroke="#fddbd6" stroke-width="1.51"/><path d="M-27,225L-29,260L8,234Z" fill="#d18cb6" stroke="#d18cb6" stroke-width="1.51"/><path d="M-56,241L-29,260L-27,225Z" fill="#cf8bb6" stroke="#cf8bb6" stroke-width="1.51"/><path d="M317,259L361,224L310,226Z" fill="#740073" stroke="#740073" stroke-width="1.51"/><path d="M346,290L361,224L317,259Z" fill="#660071" stroke="#660071" stroke-width="1.51"/><path d="M57,334L50,370L104,368Z" fill="#a36697" stroke="#a36697" stroke-width="1.51"/><path d="M-23,312L7,320L34,277Z" fill="#a57bac" stroke="#a57bac" stroke-width="1.51"/><path d="M290,303L346,290L317,259Z" fill="#54006d" stroke="#54006d" stroke-width="1.51"/><path d="M289,364L315,319L290,303Z" fill="#4b006a" stroke="#4b006a" stroke-width="1.51"/><path d="M289,364L290,303L243,334Z" fill="#5a006e" stroke="#5a006e" stroke-width="1.51"/><path d="M-31,150L-50,166L-11,176Z" fill="#fbabc7" stroke="#fbabc7" stroke-width="1.51"/><path d="M-62,100L-50,166L-31,150Z" fill="#ffbacc" stroke="#ffbacc" stroke-width="1.51"/><path d="M-62,100L-31,150L-10,92Z" fill="#ffcad3" stroke="#ffcad3" stroke-width="1.51"/><path d="M345,163L370,123L315,155Z" fill="#a03787" stroke="#a03787" stroke-width="1.51"/><path d="M361,224L370,180L328,208Z" fill="#890d7b" stroke="#890d7b" stroke-width="1.51"/><path d="M282,-11L237,-17L261,39Z" fill="#c186b3" stroke="#c186b3" stroke-width="1.51"/><path d="M189,361L248,376L243,334Z" fill="#7c0074" stroke="#7c0074" stroke-width="1.51"/><path d="M104,368L248,376L189,361Z" fill="#961e82" stroke="#961e82" stroke-width="1.51"/><path d="M73,-21L114,-2L113,-72Z" fill="#ffd2d6" stroke="#ffd2d6" stroke-width="1.51"/><path d="M73,-21L94,17L114,-2Z" fill="#fed5d7" stroke="#fed5d7" stroke-width="1.51"/><path d="M73,-21L40,-2L94,17Z" fill="#fee0dc" stroke="#fee0dc" stroke-width="1.51"/><path d="M315,319L346,290L290,303Z" fill="#49006a" stroke="#49006a" stroke-width="1.51"/><path d="M145,-49L136,-8L182,-17Z" fill="#feb1c9" stroke="#feb1c9" stroke-width="1.51"/><path d="M145,-49L114,-2L136,-8Z" fill="#ffbfce" stroke="#ffbfce" stroke-width="1.51"/><path d="M314,14L282,-11L261,39Z" fill="#ae7cac" stroke="#ae7cac" stroke-width="1.51"/><path d="M370,180L370,123L345,163Z" fill="#9e3085" stroke="#9e3085" stroke-width="1.51"/><path d="M-6,14L-34,74L16,34Z" fill="#feeae7" stroke="#feeae7" stroke-width="1.51"/><path d="M16,34L-34,74L-10,92Z" fill="#fee1dc" stroke="#fee1dc" stroke-width="1.51"/><path d="M22,375L50,370L57,334Z" fill="#a370a1" stroke="#a370a1" stroke-width="1.51"/><path d="M104,368L22,375L248,376Z" fill="#a1498c" stroke="#a1498c" stroke-width="1.51"/><path d="M-29,260L-23,312L34,277Z" fill="#b181b0" stroke="#b181b0" stroke-width="1.51"/><path d="M-71,193L-56,241L-27,225Z" fill="#df92b9" stroke="#df92b9" stroke-width="1.51"/><path d="M7,320L22,375L57,334Z" fill="#a474a5" stroke="#a474a5" stroke-width="1.51"/><path d="M-52,274L-23,312L-29,260Z" fill="#b181b0" stroke="#b181b0" stroke-width="1.51"/><path d="M314,14L288,75L316,75Z" fill="#a36c9d" stroke="#a36c9d" stroke-width="1.51"/><path d="M356,27L314,14L316,75Z" fill="#a372a3" stroke="#a372a3" stroke-width="1.51"/><path d="M248,376L289,364L243,334Z" fill="#640071" stroke="#640071" stroke-width="1.51"/><path d="M315,319L371,318L346,290Z" fill="#49006a" stroke="#49006a" stroke-width="1.51"/><path d="M231,-47L182,-17L237,-17Z" fill="#e193ba" stroke="#e193ba" stroke-width="1.51"/><path d="M183,-69L145,-49L182,-17Z" fill="#f9a8c7" stroke="#f9a8c7" stroke-width="1.51"/><path d="M-62,100L-71,193L-50,166Z" fill="#ffb1c9" stroke="#ffb1c9" stroke-width="1.51"/><path d="M-50,166L-71,193L-27,225Z" fill="#ef9cc2" stroke="#ef9cc2" stroke-width="1.51"/><path d="M-72,316L-52,274L-56,241Z" fill="#b583b2" stroke="#b583b2" stroke-width="1.51"/><path d="M-56,241L-52,274L-29,260Z" fill="#c287b4" stroke="#c287b4" stroke-width="1.51"/><path d="M40,-2L-6,14L16,34Z" fill="#feeee9" stroke="#feeee9" stroke-width="1.51"/><path d="M-2,-28L-6,14L40,-2Z" fill="#fff3f0" stroke="#fff3f0" stroke-width="1.51"/><path d="M-34,74L-62,100L-10,92Z" fill="#ffd7d7" stroke="#ffd7d7" stroke-width="1.51"/><path d="M-58,49L-62,100L-34,74Z" fill="#fededa" stroke="#fededa" stroke-width="1.51"/><path d="M263,-58L231,-47L237,-17Z" fill="#cd8bb6" stroke="#cd8bb6" stroke-width="1.51"/><path d="M370,123L365,56L316,75Z" fill="#a36094" stroke="#a36094" stroke-width="1.51"/><path d="M-35,364L22,375L7,320Z" fill="#a57dad" stroke="#a57dad" stroke-width="1.51"/><path d="M50,370L22,375L104,368Z" fill="#a36b9c" stroke="#a36b9c" stroke-width="1.51"/><path d="M-35,364L7,320L-23,312Z" fill="#a57dad" stroke="#a57dad" stroke-width="1.51"/><path d="M248,376L313,367L289,364Z" fill="#54006d" stroke="#54006d" stroke-width="1.51"/><path d="M289,364L313,367L315,319Z" fill="#49006a" stroke="#49006a" stroke-width="1.51"/><path d="M365,56L356,27L316,75Z" fill="#a36d9e" stroke="#a36d9e" stroke-width="1.51"/><path d="M314,14L327,-5L282,-11Z" fill="#a57dad" stroke="#a57dad" stroke-width="1.51"/><path d="M282,-11L263,-58L237,-17Z" fill="#c187b4" stroke="#c187b4" stroke-width="1.51"/><path d="M356,27L327,-5L314,14Z" fill="#a57aaa" stroke="#a57aaa" stroke-width="1.51"/><path d="M113,-72L55,-52L73,-21Z" fill="#ffdcd8" stroke="#ffdcd8" stroke-width="1.51"/><path d="M231,-47L183,-69L182,-17Z" fill="#ed9ac0" stroke="#ed9ac0" stroke-width="1.51"/><path d="M263,-58L183,-69L231,-47Z" fill="#db8fb7" stroke="#db8fb7" stroke-width="1.51"/><path d="M-6,14L-58,49L-34,74Z" fill="#fee8e5" stroke="#fee8e5" stroke-width="1.51"/><path d="M-62,100L-71,9L-71,193Z" fill="#ffd1d5" stroke="#ffd1d5" stroke-width="1.51"/><path d="M374,357L371,318L315,319Z" fill="#49006a" stroke="#49006a" stroke-width="1.51"/><path d="M346,290L371,318L361,224Z" fill="#58006e" stroke="#58006e" stroke-width="1.51"/><path d="M361,224L371,318L370,180Z" fill="#710073" stroke="#710073" stroke-width="1.51"/><path d="M370,180L374,357L370,123Z" fill="#7f0276" stroke="#7f0276" stroke-width="1.51"/><path d="M-6,14L-71,9L-58,49Z" fill="#ffefec" stroke="#ffefec" stroke-width="1.51"/><path d="M73,-21L55,-52L40,-2Z" fill="#fee5e1" stroke="#fee5e1" stroke-width="1.51"/><path d="M113,-72L114,-2L145,-49Z" fill="#ffc4d0" stroke="#ffc4d0" stroke-width="1.51"/><path d="M183,-69L113,-72L145,-49Z" fill="#ffb5ca" stroke="#ffb5ca" stroke-width="1.51"/><path d="M327,-53L263,-58L282,-11Z" fill="#ac7faf" stroke="#ac7faf" stroke-width="1.51"/><path d="M16,-54L-2,-28L40,-2Z" fill="#fff1ed" stroke="#fff1ed" stroke-width="1.51"/><path d="M-72,316L-23,312L-52,274Z" fill="#a57dad" stroke="#a57dad" stroke-width="1.51"/><path d="M-64,353L-35,364L-23,312Z" fill="#a57dad" stroke="#a57dad" stroke-width="1.51"/><path d="M-71,193L-72,316L-56,241Z" fill="#c889b5" stroke="#c889b5" stroke-width="1.51"/><path d="M327,-5L327,-53L282,-11Z" fill="#a57dad" stroke="#a57dad" stroke-width="1.51"/><path d="M356,27L352,-12L327,-5Z" fill="#a57cad" stroke="#a57cad" stroke-width="1.51"/><path d="M362,-50L352,-12L356,27Z" fill="#a57dad" stroke="#a57dad" stroke-width="1.51"/><path d="M55,-52L16,-54L40,-2Z" fill="#feebe8" stroke="#feebe8" stroke-width="1.51"/><path d="M-50,-31L-71,9L-6,14Z" fill="#fff7f3" stroke="#fff7f3" stroke-width="1.51"/><path d="M-7,-69L16,-54L55,-52Z" fill="#fff0ec" stroke="#fff0ec" stroke-width="1.51"/><path d="M371,318L374,357L370,180Z" fill="#53006d" stroke="#53006d" stroke-width="1.51"/><path d="M313,367L374,357L315,319Z" fill="#49006a" stroke="#49006a" stroke-width="1.51"/><path d="M-72,316L-64,353L-23,312Z" fill="#a57dad" stroke="#a57dad" stroke-width="1.51"/><path d="M263,-58L327,-53L183,-69Z" fill="#c387b4" stroke="#c387b4" stroke-width="1.51"/><path d="M352,-12L327,-53L327,-5Z" fill="#a57dad" stroke="#a57dad" stroke-width="1.51"/><path d="M-50,-31L-6,14L-2,-28Z" fill="#fff7f3" stroke="#fff7f3" stroke-width="1.51"/><path d="M-58,49L-71,9L-62,100Z" fill="#fee6e2" stroke="#fee6e2" stroke-width="1.51"/><path d="M-71,193L-71,9L-72,316Z" fill="#f8a7c6" stroke="#f8a7c6" stroke-width="1.51"/><path d="M-44,-56L-50,-31L-2,-28Z" fill="#fff7f3" stroke="#fff7f3" stroke-width="1.51"/><path d="M16,-54L-7,-69L-2,-28Z" fill="#fff6f2" stroke="#fff6f2" stroke-width="1.51"/><path d="M113,-72L-7,-69L55,-52Z" fill="#fee5e1" stroke="#fee5e1" stroke-width="1.51"/><path d="M352,-12L362,-50L327,-53Z" fill="#a57dad" stroke="#a57dad" stroke-width="1.51"/><path d="M327,-53L362,-50L183,-69Z" fill="#ac7faf" stroke="#ac7faf" stroke-width="1.51"/><path d="M365,56L362,-50L356,27Z" fill="#a57aab" stroke="#a57aab" stroke-width="1.51"/><path d="M370,123L362,-50L365,56Z" fill="#a370a1" stroke="#a370a1" stroke-width="1.51"/><path d="M-7,-69L-44,-56L-2,-28Z" fill="#fff7f3" stroke="#fff7f3" stroke-width="1.51"/><path d="M-50,-31L-44,-56L-71,9Z" fill="#fff7f3" stroke="#fff7f3" stroke-width="1.51"/></svg>